<svg width="202" height="202" viewBox="0 0 202 202" fill="none" xmlns="http://www.w3.org/2000/svg">
<path d="M188.725 103.675C188.498 102.503 188.263 101.348 188.023 100.208C188.022 100.208 188.022 100.208 188.021 100.207C188.021 100.207 188.02 100.207 188.02 100.207C188.02 100.206 188.02 100.206 188.019 100.206C188.019 100.205 188.019 100.205 188.019 100.204C184.972 85.7775 180.866 73.9476 176.003 64.2981L163.119 59.8763L172.83 58.4915C168.904 51.8452 164.578 46.4009 159.98 41.9824L136.314 44.6809L154.177 37.0426C121.349 12.4042 78.3113 32.1941 66.5838 38.4138C64.9753 39.2636 63.9573 39.8629 63.6315 40.0559C63.6281 40.0559 63.6281 40.0559 63.6247 40.0593C63.5535 40.1033 63.5195 40.1236 63.5195 40.1236L70.1773 43.5737H70.1807L188.42 104.853L188.725 103.675Z" fill="#23D18C"/>
<path d="M188.725 103.675C188.878 103.069 189.024 102.461 189.163 101.853C188.817 101.349 188.437 100.797 188.023 100.208C188.022 100.208 188.022 100.208 188.021 100.207C188.021 100.207 188.02 100.207 188.02 100.207C188.02 100.206 188.02 100.206 188.019 100.206C188.019 100.205 188.019 100.205 188.019 100.204C174.385 80.753 124.407 17.1951 66.8383 38.7693H66.8349C65.7694 39.1688 64.7016 39.5977 63.6316 40.0559C63.6282 40.0559 63.6282 40.0559 63.6248 40.0593C62.6509 40.4757 61.6759 40.9181 60.6997 41.3865C60.2043 41.6201 59.7122 41.8639 59.2168 42.1111C58.7858 42.3278 58.3583 42.5478 57.9273 42.7747C57.9273 42.7747 55.4773 43.3875 52.7321 45.6966C47.34 50.2403 40.8044 61.3423 49.4642 87.2638C49.4642 87.2638 57.1536 108.74 53.3089 118.714C49.4642 128.682 73.3027 140.187 80.215 118.714C87.1341 97.235 89.445 76.5241 89.445 76.5241C89.445 76.5241 97.3991 93.2465 96.6152 110.016C96.2928 116.889 96.907 123.769 98.7632 130.389C98.9532 131.083 99.1602 131.777 99.3672 132.481C101.868 140.861 105.771 151.641 111.519 162.066C114.227 167.033 117.353 171.762 120.864 176.202C125.464 174.71 129.95 172.892 134.288 170.761C147.509 164.274 159.182 155.035 168.519 143.666C177.857 132.296 184.643 119.061 188.42 104.853L188.725 103.675Z" fill="#22252F"/>
<path d="M60.2304 50.4454L57.1553 25.1331L70.2243 43.5418L60.2304 50.4454Z" fill="#22252F"/>
<path d="M53.5295 52.2688L50.4543 26.9565L63.5234 45.3653L53.5295 52.2688Z" fill="#22252F"/>
<path d="M46.8356 75.8555L14 33.2708L47.2553 63.0656L46.8356 75.8555Z" fill="#23D18C"/>
</svg>
