<svg width="3602" height="2434" viewBox="0 0 3602 2434" fill="none" xmlns="http://www.w3.org/2000/svg">
<path d="M1272.17 865.779C1270.54 1014.08 1268.91 1162.38 1267.28 1310.68C1269.99 1368.72 1315.53 1393.69 1349.72 1409.95C1355.84 1412.86 1363.34 1415.78 1370.45 1417.44C1401.23 1424.67 1438.58 1419.81 1467.73 1406.02C1499.65 1395.61 1527.68 1355.19 1537.46 1315.43C1547.64 1279.28 1546.59 1235.25 1531.29 1180.31C1515 1127.79 1471.77 1066.87 1434.32 1021.41C1381.41 962.739 1320.08 902.662 1272.17 865.779Z" fill="url(#paint0_linear)"/>
<path d="M1243.97 309.955C1236.76 364.157 1240.18 421.962 1247.72 471.31C1305.16 712.214 1360.6 785.241 1411.66 852.548C1465.17 923.085 1535.51 988.137 1598.37 1051.51C1718.56 1167.97 1835.45 1275.94 1955.64 1392.4C2001.01 1435.16 2080.75 1436.61 2137.53 1429.07C2297.67 1409.27 2343.57 1271.62 2352.43 1223.49C2361.56 1173.84 2357.64 1110.72 2334.78 1064.75L1243.97 309.955ZM2334.35 1064.69C2323.64 1040.03 2307.13 1017.74 2289.22 997.268C2236.58 937.107 2178.66 881.495 2122.68 822.785C2161.54 783.517 2203.25 745.38 2239.77 705.292C2273.8 667.928 2312.78 636.194 2334.35 590.428C2360.36 556.014 2364.68 484.966 2355.8 437.373C2345.58 382.58 2323.21 329.162 2277.06 283.271C2228.68 237.9 2168.02 215.955 2112 213.129C1943.82 204.002 1852.55 357.192 1803.66 393.045C1765.94 433.572 1759.43 446.184 1721.71 486.711C1690.42 521.652 1687.06 594.339 1693.55 624.387C1701.38 660.651 1728.49 711.999 1747.78 725.557C1862.37 620.519 1938.14 527.426 2052.73 422.388C2085.57 393.017 2134.57 412.362 2149.34 429.868C2163.21 446.313 2187.04 483.532 2146.18 528.123C2039.55 634.222 1953.99 716.686 1847.36 822.785C1950.27 927.292 2037.39 1012.54 2140.31 1117.05C2210.81 1200.91 2121.12 1285.18 2042.68 1218.01C1880.35 1056.21 1730.51 917.488 1584.76 754.351C1478.13 614.132 1519.74 397.797 1510.06 340.724C1484.03 163.498 1264.53 184.922 1243.97 310.222" fill="url(#paint1_linear)"/>
<path d="M67.5 2251C59.8333 2251 53.1667 2248.17 47.5 2242.5C42.1667 2236.83 39.5 2230.17 39.5 2222.5V1914.5C39.5 1906.83 42.1667 1900.17 47.5 1894.5C53.1667 1888.83 59.8333 1886 67.5 1886H81C88.6667 1886 95.3333 1888.83 101 1894.5C106.667 1900.17 109.5 1906.83 109.5 1914.5V2028C109.5 2030.67 110.833 2032 113.5 2032H238.5C241.167 2032 242.5 2030.67 242.5 2028V1914.5C242.5 1906.83 245.333 1900.17 251 1894.5C256.667 1888.83 263.333 1886 271 1886H284.5C292.167 1886 298.667 1888.83 304 1894.5C309.667 1900.17 312.5 1906.83 312.5 1914.5V2222.5C312.5 2230.17 309.667 2236.83 304 2242.5C298.667 2248.17 292.167 2251 284.5 2251H271C263.333 2251 256.667 2248.17 251 2242.5C245.333 2236.83 242.5 2230.17 242.5 2222.5V2090C242.5 2087 241.167 2085.5 238.5 2085.5H113.5C110.833 2085.5 109.5 2087 109.5 2090V2222.5C109.5 2230.17 106.667 2236.83 101 2242.5C95.3333 2248.17 88.6667 2251 81 2251H67.5ZM430.051 2251C422.384 2251 415.717 2248.17 410.051 2242.5C404.384 2236.83 401.551 2230.17 401.551 2222.5V2019.5C401.551 2011.83 404.384 2005.17 410.051 1999.5C415.717 1993.83 422.384 1991 430.051 1991H443.051C450.717 1991 457.384 1993.83 463.051 1999.5C468.717 2005.17 471.551 2011.83 471.551 2019.5V2222.5C471.551 2230.17 468.717 2236.83 463.051 2242.5C457.384 2248.17 450.717 2251 443.051 2251H430.051ZM430.051 1936C422.384 1936 415.717 1933.17 410.051 1927.5C404.384 1921.83 401.551 1915.17 401.551 1907.5V1904.5C401.551 1896.83 404.384 1890.17 410.051 1884.5C415.717 1878.83 422.384 1876 430.051 1876H443.051C450.717 1876 457.384 1878.83 463.051 1884.5C468.717 1890.17 471.551 1896.83 471.551 1904.5V1907.5C471.551 1915.17 468.717 1921.83 463.051 1927.5C457.384 1933.17 450.717 1936 443.051 1936H430.051ZM572.996 2306C565.663 2306 559.663 2303.17 554.996 2297.5C550.663 2291.83 549.329 2285.5 550.996 2278.5L571.496 2193.5C573.496 2185.5 577.829 2179 584.496 2174C591.163 2168.67 598.496 2166 606.496 2166H632.996C639.663 2166 644.829 2168.83 648.496 2174.5C652.496 2180.17 653.163 2186.17 650.496 2192.5L615.496 2279.5C612.496 2287.5 607.329 2293.83 599.996 2298.5C592.996 2303.5 585.163 2306 576.496 2306H572.996ZM901.73 2251C894.064 2251 887.397 2248.17 881.73 2242.5C876.064 2236.83 873.23 2230.17 873.23 2222.5V1914.5C873.23 1906.83 876.064 1900.17 881.73 1894.5C887.397 1888.83 894.064 1886 901.73 1886H921.73C929.397 1886 936.064 1888.83 941.73 1894.5C947.397 1900.17 950.23 1906.83 950.23 1914.5V2222.5C950.23 2230.17 947.397 2236.83 941.73 2242.5C936.064 2248.17 929.397 2251 921.73 2251H901.73ZM1040.51 1977.5L1034.51 1894.5C1034.18 1886.83 1036.51 1880.17 1041.51 1874.5C1046.85 1868.83 1053.35 1866 1061.01 1866H1081.01C1088.68 1866 1095.18 1868.83 1100.51 1874.5C1105.85 1880.17 1108.18 1886.83 1107.51 1894.5L1101.51 1977.5C1101.18 1985.5 1098.01 1992.33 1092.01 1998C1086.01 2003.33 1079.01 2006 1071.01 2006C1063.01 2006 1056.01 2003.33 1050.01 1998C1044.35 1992.33 1041.18 1985.5 1040.51 1977.5ZM1188.96 2251C1181.3 2251 1174.63 2248.17 1168.96 2242.5C1163.63 2236.83 1160.96 2230.17 1160.96 2222.5V2019.5C1160.96 2011.83 1163.63 2005.17 1168.96 1999.5C1174.63 1993.83 1181.3 1991 1188.96 1991H1195.96C1203.63 1991 1210.13 1993.67 1215.46 1999C1221.13 2004.33 1224.13 2010.83 1224.46 2018.5V2022C1224.46 2022.33 1224.63 2022.5 1224.96 2022.5C1225.63 2022.5 1225.96 2022.33 1225.96 2022C1245.63 1998 1267.8 1986 1292.46 1986C1307.46 1986 1319.46 1988.83 1328.46 1994.5C1337.8 2000.17 1345.96 2010.17 1352.96 2024.5C1352.96 2024.83 1353.3 2025 1353.96 2025C1354.3 2025 1354.63 2024.83 1354.96 2024.5C1375.96 1998.83 1399.63 1986 1425.96 1986C1453.63 1986 1473.46 1993.5 1485.46 2008.5C1497.8 2023.5 1503.96 2049.33 1503.96 2086V2222.5C1503.96 2230.17 1501.13 2236.83 1495.46 2242.5C1490.13 2248.17 1483.63 2251 1475.96 2251H1467.46C1459.8 2251 1453.13 2248.17 1447.46 2242.5C1441.8 2236.83 1438.96 2230.17 1438.96 2222.5V2096C1438.96 2071.67 1436.63 2055.67 1431.96 2048C1427.3 2040.33 1418.3 2036.5 1404.96 2036.5C1396.3 2036.5 1387.63 2040.5 1378.96 2048.5C1370.3 2056.5 1365.96 2064.5 1365.96 2072.5V2222.5C1365.96 2230.17 1363.13 2236.83 1357.46 2242.5C1351.8 2248.17 1345.13 2251 1337.46 2251H1328.96C1321.3 2251 1314.63 2248.17 1308.96 2242.5C1303.63 2236.83 1300.96 2230.17 1300.96 2222.5V2096C1300.96 2072 1298.46 2056.17 1293.46 2048.5C1288.8 2040.5 1279.8 2036.5 1266.46 2036.5C1257.8 2036.5 1249.13 2040.5 1240.46 2048.5C1231.8 2056.5 1227.46 2064.5 1227.46 2072.5V2222.5C1227.46 2230.17 1224.63 2236.83 1218.96 2242.5C1213.3 2248.17 1206.63 2251 1198.96 2251H1188.96ZM1743.22 2251C1735.56 2251 1728.89 2248.17 1723.22 2242.5C1717.89 2236.83 1715.22 2230.17 1715.22 2222.5V1904.5C1715.22 1896.83 1717.89 1890.17 1723.22 1884.5C1728.89 1878.83 1735.56 1876 1743.22 1876H1753.22C1760.89 1876 1767.56 1878.83 1773.22 1884.5C1778.89 1890.17 1781.72 1896.83 1781.72 1904.5V2020.5C1781.72 2020.83 1781.89 2021 1782.22 2021C1782.56 2021 1782.89 2020.83 1783.22 2020.5C1806.56 1997.5 1832.22 1986 1860.22 1986C1890.56 1986 1912.56 1994.67 1926.22 2012C1939.89 2029.33 1946.72 2059 1946.72 2101V2222.5C1946.72 2230.17 1943.89 2236.83 1938.22 2242.5C1932.56 2248.17 1925.89 2251 1918.22 2251H1910.22C1902.56 2251 1895.89 2248.17 1890.22 2242.5C1884.56 2236.83 1881.72 2230.17 1881.72 2222.5V2111C1881.72 2082 1878.56 2062.83 1872.22 2053.5C1866.22 2044.17 1854.72 2039.5 1837.72 2039.5C1824.39 2039.5 1811.72 2045.5 1799.72 2057.5C1787.72 2069.5 1781.72 2082.33 1781.72 2096V2222.5C1781.72 2230.17 1778.89 2236.83 1773.22 2242.5C1767.56 2248.17 1760.89 2251 1753.22 2251H1743.22ZM2056.52 2251C2048.85 2251 2042.18 2248.17 2036.52 2242.5C2030.85 2236.83 2028.02 2230.17 2028.02 2222.5V2019.5C2028.02 2011.83 2030.85 2005.17 2036.52 1999.5C2042.18 1993.83 2048.85 1991 2056.52 1991H2069.52C2077.18 1991 2083.85 1993.83 2089.52 1999.5C2095.18 2005.17 2098.02 2011.83 2098.02 2019.5V2222.5C2098.02 2230.17 2095.18 2236.83 2089.52 2242.5C2083.85 2248.17 2077.18 2251 2069.52 2251H2056.52ZM2056.52 1936C2048.85 1936 2042.18 1933.17 2036.52 1927.5C2030.85 1921.83 2028.02 1915.17 2028.02 1907.5V1904.5C2028.02 1896.83 2030.85 1890.17 2036.52 1884.5C2042.18 1878.83 2048.85 1876 2056.52 1876H2069.52C2077.18 1876 2083.85 1878.83 2089.52 1884.5C2095.18 1890.17 2098.02 1896.83 2098.02 1904.5V1907.5C2098.02 1915.17 2095.18 1921.83 2089.52 1927.5C2083.85 1933.17 2077.18 1936 2069.52 1936H2056.52ZM2263.46 2256C2234.13 2256 2212.79 2248 2199.46 2232C2186.13 2215.67 2179.46 2188.17 2179.46 2149.5V2019.5C2179.46 2011.83 2182.29 2005.17 2187.96 1999.5C2193.63 1993.83 2200.29 1991 2207.96 1991H2215.96C2223.63 1991 2230.29 1993.83 2235.96 1999.5C2241.63 2005.17 2244.46 2011.83 2244.46 2019.5V2142.5C2244.46 2165.83 2247.63 2182 2253.96 2191C2260.29 2200 2270.96 2204.5 2285.96 2204.5C2299.63 2204.5 2312.29 2198.67 2323.96 2187C2335.96 2175.33 2341.96 2162.83 2341.96 2149.5V2019.5C2341.96 2011.83 2344.79 2005.17 2350.46 1999.5C2356.13 1993.83 2362.79 1991 2370.46 1991H2380.46C2388.13 1991 2394.63 1993.83 2399.96 1999.5C2405.63 2005.17 2408.46 2011.83 2408.46 2019.5V2222.5C2408.46 2230.17 2405.63 2236.83 2399.96 2242.5C2394.63 2248.17 2388.13 2251 2380.46 2251H2373.96C2365.96 2251 2359.13 2248.33 2353.46 2243C2348.13 2237.33 2345.29 2230.5 2344.96 2222.5L2344.46 2219C2344.46 2218.67 2344.29 2218.5 2343.96 2218.5C2343.63 2218.5 2343.29 2218.67 2342.96 2219C2320.29 2243.67 2293.79 2256 2263.46 2256ZM2508.37 2251C2500.7 2251 2494.04 2248.17 2488.37 2242.5C2482.7 2236.83 2479.87 2230.17 2479.87 2222.5V1904.5C2479.87 1896.83 2482.7 1890.17 2488.37 1884.5C2494.04 1878.83 2500.7 1876 2508.37 1876H2518.37C2526.04 1876 2532.7 1878.83 2538.37 1884.5C2544.04 1890.17 2546.87 1896.83 2546.87 1904.5V2097C2546.87 2097.33 2547.04 2097.5 2547.37 2097.5H2547.87L2623.87 2012C2636.2 1998 2651.87 1991 2670.87 1991H2691.87C2697.2 1991 2700.87 1993.5 2702.87 1998.5C2705.2 2003.5 2704.54 2008 2700.87 2012L2609.37 2113C2607.7 2115 2607.7 2117.17 2609.37 2119.5L2701.87 2229.5C2705.54 2233.83 2706.04 2238.5 2703.37 2243.5C2701.04 2248.5 2697.2 2251 2691.87 2251H2670.87C2651.87 2251 2636.37 2243.67 2624.37 2229L2547.87 2136.5C2547.87 2136.17 2547.7 2136 2547.37 2136C2547.04 2136 2546.87 2136.17 2546.87 2136.5V2222.5C2546.87 2230.17 2544.04 2236.83 2538.37 2242.5C2532.7 2248.17 2526.04 2251 2518.37 2251H2508.37ZM2790.11 2251C2782.44 2251 2775.78 2248.17 2770.11 2242.5C2764.44 2236.83 2761.61 2230.17 2761.61 2222.5V1904.5C2761.61 1896.83 2764.44 1890.17 2770.11 1884.5C2775.78 1878.83 2782.44 1876 2790.11 1876H2800.11C2807.78 1876 2814.44 1878.83 2820.11 1884.5C2825.78 1890.17 2828.61 1896.83 2828.61 1904.5V2097C2828.61 2097.33 2828.78 2097.5 2829.11 2097.5H2829.61L2905.61 2012C2917.94 1998 2933.61 1991 2952.61 1991H2973.61C2978.94 1991 2982.61 1993.5 2984.61 1998.5C2986.94 2003.5 2986.28 2008 2982.61 2012L2891.11 2113C2889.44 2115 2889.44 2117.17 2891.11 2119.5L2983.61 2229.5C2987.28 2233.83 2987.78 2238.5 2985.11 2243.5C2982.78 2248.5 2978.94 2251 2973.61 2251H2952.61C2933.61 2251 2918.11 2243.67 2906.11 2229L2829.61 2136.5C2829.61 2136.17 2829.44 2136 2829.11 2136C2828.78 2136 2828.61 2136.17 2828.61 2136.5V2222.5C2828.61 2230.17 2825.78 2236.83 2820.11 2242.5C2814.44 2248.17 2807.78 2251 2800.11 2251H2790.11ZM3102.96 2247L3019.96 2017.5C3017.96 2010.83 3018.8 2004.83 3022.46 1999.5C3026.13 1993.83 3031.46 1991 3038.46 1991H3053.46C3061.8 1991 3069.46 1993.67 3076.46 1999C3083.46 2004 3087.96 2010.5 3089.96 2018.5L3136.46 2182C3136.46 2182.33 3136.63 2182.5 3136.96 2182.5C3137.3 2182.5 3137.46 2182.33 3137.46 2182L3190.96 2018C3193.63 2010 3198.46 2003.5 3205.46 1998.5C3212.46 1993.5 3220.13 1991 3228.46 1991H3240.46C3247.46 1991 3252.8 1993.83 3256.46 1999.5C3260.46 2005.17 3261.13 2011.17 3258.46 2017.5L3136.46 2334.5C3133.46 2342.5 3128.46 2348.83 3121.46 2353.5C3114.46 2358.5 3106.63 2361 3097.96 2361H3085.96C3079.3 2361 3073.96 2358.17 3069.96 2352.5C3066.3 2347.17 3065.8 2341.33 3068.46 2335L3102.96 2255C3103.63 2253.67 3103.96 2252.33 3103.96 2251C3103.96 2249.67 3103.63 2248.33 3102.96 2247ZM3363.48 2141C3355.48 2141 3348.65 2138.33 3342.98 2133C3337.32 2127.33 3334.32 2120.5 3333.98 2112.5L3326.48 1914.5C3326.15 1906.83 3328.65 1900.17 3333.98 1894.5C3339.32 1888.83 3345.82 1886 3353.48 1886H3380.48C3388.15 1886 3394.65 1888.83 3399.98 1894.5C3405.32 1900.17 3407.82 1906.83 3407.48 1914.5L3399.98 2112.5C3399.65 2120.5 3396.65 2127.33 3390.98 2133C3385.32 2138.33 3378.48 2141 3370.48 2141H3363.48ZM3375.48 2181C3383.15 2181 3389.65 2183.83 3394.98 2189.5C3400.65 2195.17 3403.48 2201.83 3403.48 2209.5V2222.5C3403.48 2230.17 3400.65 2236.83 3394.98 2242.5C3389.65 2248.17 3383.15 2251 3375.48 2251H3358.48C3350.82 2251 3344.15 2248.17 3338.48 2242.5C3333.15 2236.83 3330.48 2230.17 3330.48 2222.5V2209.5C3330.48 2201.83 3333.15 2195.17 3338.48 2189.5C3344.15 2183.83 3350.82 2181 3358.48 2181H3375.48ZM3503.62 2141C3495.62 2141 3488.79 2138.33 3483.12 2133C3477.45 2127.33 3474.45 2120.5 3474.12 2112.5L3466.62 1914.5C3466.29 1906.83 3468.79 1900.17 3474.12 1894.5C3479.45 1888.83 3485.95 1886 3493.62 1886H3520.62C3528.29 1886 3534.79 1888.83 3540.12 1894.5C3545.45 1900.17 3547.95 1906.83 3547.62 1914.5L3540.12 2112.5C3539.79 2120.5 3536.79 2127.33 3531.12 2133C3525.45 2138.33 3518.62 2141 3510.62 2141H3503.62ZM3515.62 2181C3523.29 2181 3529.79 2183.83 3535.12 2189.5C3540.79 2195.17 3543.62 2201.83 3543.62 2209.5V2222.5C3543.62 2230.17 3540.79 2236.83 3535.12 2242.5C3529.79 2248.17 3523.29 2251 3515.62 2251H3498.62C3490.95 2251 3484.29 2248.17 3478.62 2242.5C3473.29 2236.83 3470.62 2230.17 3470.62 2222.5V2209.5C3470.62 2201.83 3473.29 2195.17 3478.62 2189.5C3484.29 2183.83 3490.95 2181 3498.62 2181H3515.62Z" fill="url(#paint2_linear)"/>
<defs>
<linearGradient id="paint0_linear" x1="1725.5" y1="866" x2="932.727" y2="2054.44" gradientUnits="userSpaceOnUse">
<stop stop-color="#04EA36" stop-opacity="0.51"/>
<stop offset="0.161458" stop-color="#04EAEA" stop-opacity="0.838542"/>
<stop offset="0.348958" stop-color="#8504EA" stop-opacity="0.651042"/>
<stop offset="0.510417" stop-color="#BD3D82" stop-opacity="0.489583"/>
<stop offset="0.661458" stop-color="#DCC36C" stop-opacity="0.338542"/>
<stop offset="0.817708" stop-color="#F33535" stop-opacity="0.51"/>
<stop offset="0.9999" stop-color="#C0344D" stop-opacity="0.342857"/>
<stop offset="1" stop-color="#04EA36" stop-opacity="0"/>
</linearGradient>
<linearGradient id="paint1_linear" x1="2797" y1="301.5" x2="-368.5" y2="2123.5" gradientUnits="userSpaceOnUse">
<stop stop-color="#04EA36" stop-opacity="0.47"/>
<stop offset="0.101354" stop-color="#04EAEA" stop-opacity="0.62"/>
<stop offset="0.22062" stop-color="#437AEA" stop-opacity="0.732234"/>
<stop offset="0.345764" stop-color="#8504EA" stop-opacity="0.85"/>
<stop offset="0.485369" stop-color="#BD3D82" stop-opacity="0.489583"/>
<stop offset="0.769722" stop-color="#F33535" stop-opacity="0.31"/>
<stop offset="0.9999" stop-color="#C0344D" stop-opacity="0.342857"/>
<stop offset="1" stop-color="#04EA36" stop-opacity="0"/>
</linearGradient>
<linearGradient id="paint2_linear" x1="5007.42" y1="1745.48" x2="3684.82" y2="5767.45" gradientUnits="userSpaceOnUse">
<stop stop-color="#04EA36" stop-opacity="0.47"/>
<stop offset="0.101354" stop-color="#04EAEA" stop-opacity="0.62"/>
<stop offset="0.22062" stop-color="#437AEA" stop-opacity="0.732234"/>
<stop offset="0.345764" stop-color="#8504EA" stop-opacity="0.85"/>
<stop offset="0.485369" stop-color="#BD3D82" stop-opacity="0.489583"/>
<stop offset="0.769722" stop-color="#F33535" stop-opacity="0.31"/>
<stop offset="0.9999" stop-color="#C0344D" stop-opacity="0.342857"/>
<stop offset="1" stop-color="#04EA36" stop-opacity="0"/>
</linearGradient>
</defs>
</svg>
