<svg width="1645" height="1645" viewBox="0 0 1645 1645" fill="none" xmlns="http://www.w3.org/2000/svg">
<path d="M294.167 865.78C292.537 1014.08 290.907 1162.38 289.278 1310.68C291.986 1368.72 337.532 1393.69 371.723 1409.95C377.84 1412.86 385.344 1415.78 392.447 1417.44C423.228 1424.67 460.585 1419.81 489.729 1406.02C521.654 1395.61 549.684 1355.19 559.462 1315.43C569.641 1279.28 568.589 1235.25 553.286 1180.31C537.001 1127.79 493.771 1066.87 456.32 1021.41C403.408 962.739 342.079 902.663 294.167 865.78Z" fill="url(#paint0_linear)"/>
<path d="M265.974 309.955C258.764 364.157 262.178 421.962 269.721 471.31C327.162 712.214 382.599 785.241 433.659 852.548C487.17 923.085 557.515 988.137 620.369 1051.51C740.558 1167.97 857.452 1275.94 977.641 1392.4C1023.01 1435.16 1102.75 1436.61 1159.53 1429.07C1319.67 1409.27 1365.57 1271.62 1374.43 1223.49C1383.56 1173.84 1379.64 1110.72 1356.78 1064.75L265.974 309.955ZM1356.35 1064.69C1345.64 1040.03 1329.13 1017.74 1311.22 997.268C1258.58 937.107 1200.66 881.495 1144.68 822.785C1183.54 783.517 1225.25 745.38 1261.77 705.292C1295.8 667.928 1334.78 636.194 1356.35 590.428C1382.36 556.014 1386.68 484.966 1377.8 437.373C1367.58 382.58 1345.21 329.162 1299.06 283.271C1250.68 237.9 1190.02 215.955 1134 213.129C965.816 204.002 874.554 357.192 825.664 393.045C787.941 433.572 781.432 446.184 743.709 486.711C712.419 521.652 709.058 594.339 715.548 624.387C723.381 660.651 750.489 711.999 769.784 725.557C884.371 620.519 960.144 527.426 1074.73 422.388C1107.57 393.017 1156.57 412.362 1171.34 429.868C1185.21 446.313 1209.04 483.532 1168.18 528.123C1061.55 634.222 975.986 716.686 869.357 822.785C972.273 927.292 1059.39 1012.54 1162.31 1117.05C1232.81 1200.91 1143.12 1285.18 1064.68 1218.01C902.352 1056.21 752.506 917.488 606.762 754.351C500.126 614.132 541.743 397.797 532.064 340.724C506.031 163.498 286.526 184.922 265.974 310.222" fill="url(#paint1_linear)"/>
<defs>
<linearGradient id="paint0_linear" x1="747.499" y1="866" x2="-45.273" y2="2054.44" gradientUnits="userSpaceOnUse">
<stop stop-color="#04EA36" stop-opacity="0.51"/>
<stop offset="0.161458" stop-color="#04EAEA" stop-opacity="0.838542"/>
<stop offset="0.348958" stop-color="#8504EA" stop-opacity="0.651042"/>
<stop offset="0.510417" stop-color="#BD3D82" stop-opacity="0.489583"/>
<stop offset="0.661458" stop-color="#DCC36C" stop-opacity="0.338542"/>
<stop offset="0.817708" stop-color="#F33535" stop-opacity="0.51"/>
<stop offset="0.9999" stop-color="#C0344D" stop-opacity="0.342857"/>
<stop offset="1" stop-color="#04EA36" stop-opacity="0"/>
</linearGradient>
<linearGradient id="paint1_linear" x1="1819" y1="301.5" x2="-1346.5" y2="2123.5" gradientUnits="userSpaceOnUse">
<stop stop-color="#04EA36" stop-opacity="0.47"/>
<stop offset="0.101354" stop-color="#04EAEA" stop-opacity="0.62"/>
<stop offset="0.22062" stop-color="#437AEA" stop-opacity="0.732234"/>
<stop offset="0.345764" stop-color="#8504EA" stop-opacity="0.85"/>
<stop offset="0.485369" stop-color="#BD3D82" stop-opacity="0.489583"/>
<stop offset="0.769722" stop-color="#F33535" stop-opacity="0.31"/>
<stop offset="0.9999" stop-color="#C0344D" stop-opacity="0.342857"/>
<stop offset="1" stop-color="#04EA36" stop-opacity="0"/>
</linearGradient>
</defs>
</svg>
